<svg xmlns="http://www.w3.org/2000/svg" xmlns:xlink="http://www.w3.org/1999/xlink" width="1140" height="711.3"><rect width="1140" height="711.3" rx="5" ry="5" class="a"/><svg y="0%" x="0%"><circle cx="20" cy="20" r="6" fill="#ff5f58"/><circle cx="40" cy="20" r="6" fill="#ffbd2e"/><circle cx="60" cy="20" r="6" fill="#18c132"/></svg><svg height="651.3" viewBox="0 0 110 65.13" width="1100" x="15" xmlns="http://www.w3.org/2000/svg" xmlns:xlink="http://www.w3.org/1999/xlink" y="50"><style>@keyframes o{0%{transform:translateX(0)}5.7%{transform:translateX(-110px)}5.8%{transform:translateX(-330px)}5.9%{transform:translateX(-660px)}7.2%{transform:translateX(-770px)}7.9%{transform:translateX(-880px)}23.5%{transform:translateX(-990px)}32%{transform:translateX(-1430px)}32.5%{transform:translateX(-1540px)}35.1%{transform:translateX(-2640px)}35.2%{transform:translateX(-2970px)}to{transform:translateX(-3080px)}}.a{fill:#282d35}.f,.g,.h,.j,.k,.l{fill:#71bef2;white-space:pre}.g,.h,.j,.k,.l{fill:#d290e4}.h,.j,.k,.l{fill:#6c6c6c}.j,.k,.l{fill:#b9c0cb}.k,.l{fill:#dbab79}.l{fill:#e88388}</style><g font-family="Monaco,Consolas,Menlo,'Bitstream Vera Sans Mono','Powerline Symbols',monospace" font-size="1.67"><defs><symbol id="1"><text y="1.67" class="f">~/dev/dotenv-audit</text></symbol><symbol id="2"><text y="1.67" class="g">❯</text></symbol><symbol id="3"><text y="1.67" class="f">~/dev/dotenv-audit</text><text x="19.038" y="1.67" class="h">main</text><text x="23.046" y="1.67" style="white-space:pre" fill="#ffafd7">*</text></symbol><symbol id="4"><text y="1.67" class="g">❯</text><text x="2.004" y="1.67" class="j">./dotenv-audit.sh</text><text x="20.04" y="1.67" class="j">demo/demo.env</text><text x="34.068" y="1.67" class="j">demo/demo.env.example</text></symbol><symbol id="5"><text y="1.67" class="f">Starting</text><text x="9.018" y="1.67" class="f">comparison...</text></symbol><symbol id="6"><text y="1.67" class="j">+---------------------------+---------------------------+</text></symbol><symbol id="7"><text y="1.67" class="j">|</text><text x="2.004" y="1.67" class="k">Missing</text><text x="10.02" y="1.67" class="k">variables</text><text x="28.056" y="1.67" class="j">|</text><text x="30.06" y="1.67" class="k">Extra</text><text x="36.072" y="1.67" class="k">variables</text><text x="56.112" y="1.67" class="j">|</text></symbol><symbol id="8"><text y="1.67" class="j">|</text><text x="2.004" y="1.67" class="j">CACHE_TTL</text><text x="28.056" y="1.67" class="j">|</text><text x="30.06" y="1.67" class="j">EXTRA_FEATURE</text><text x="56.112" y="1.67" class="j">|</text></symbol><symbol id="9"><text y="1.67" class="j">|</text><text x="2.004" y="1.67" class="j">SENTRY_DSN</text><text x="28.056" y="1.67" class="j">|</text><text x="30.06" y="1.67" class="j">-</text><text x="56.112" y="1.67" class="j">|</text></symbol><symbol id="10"><text y="1.67" class="j">|</text><text x="2.004" y="1.67" class="k">Variables</text><text x="12.024" y="1.67" class="k">with</text><text x="17.034" y="1.67" class="k">different</text><text x="27.054" y="1.67" class="k">values</text><text x="56.112" y="1.67" class="j">|</text></symbol><symbol id="11"><text y="1.67" class="j">|</text><text x="2.004" y="1.67" class="j">API_KEY</text><text x="56.112" y="1.67" class="j">|</text></symbol><symbol id="12"><text y="1.67" class="j">|</text><text x="2.004" y="1.67" class="j">DEBUG</text><text x="56.112" y="1.67" class="j">|</text></symbol><symbol id="13"><text y="1.67" class="j">|</text><text x="2.004" y="1.67" class="j">LOG_LEVEL</text><text x="56.112" y="1.67" class="j">|</text></symbol><symbol id="14"><text y="1.67" class="j">|</text><text x="2.004" y="1.67" class="j">MAX_CONNECTIONS</text><text x="56.112" y="1.67" class="j">|</text></symbol><symbol id="15"><text y="1.67" class="j">|</text><text x="2.004" y="1.67" class="j">SECRET_KEY</text><text x="56.112" y="1.67" class="j">|</text></symbol><symbol id="16"><text y="1.67" class="l">Audit</text><text x="6.012" y="1.67" class="l">failed.</text><text x="14.028" y="1.67" class="l">Found</text><text x="20.04" y="1.67" class="l">issues</text><text x="27.054" y="1.67" class="l">in</text><text x="30.06" y="1.67" class="l">env</text><text x="34.068" y="1.67" class="l">files.</text></symbol><symbol id="17"><text y="1.67" class="l">❯</text></symbol><symbol id="a"><path fill="transparent" d="M0 0h110v31H0z"/></symbol><symbol id="b"><path fill="#6f7683" d="M0 0h1.102v2.171H0z"/></symbol></defs><path class="a" d="M0 0h110v65.13H0z"/><g style="animation-duration:5.221287s;animation-iteration-count:infinite;animation-name:o;animation-timing-function:steps(1,end)"><svg width="3190"><svg><use xlink:href="#a"/><use xlink:href="#b" x="-.004"/></svg><svg x="110"><use xlink:href="#a"/><use xlink:href="#b" x="-.004"/></svg><svg x="220"><use xlink:href="#a"/><use xlink:href="#b" x="-.004" y="2.146"/></svg><svg x="330"><use xlink:href="#a"/><use xlink:href="#b" x="-.004" y="2.146"/></svg><svg x="440"><use xlink:href="#a"/><use xlink:href="#b" x="-.004" y="2.146"/></svg><svg x="550"><use xlink:href="#a"/><use xlink:href="#b" x="1.996" y="4.317"/><use xlink:href="#1" y="2.171"/><use xlink:href="#2" y="4.342"/></svg><svg x="660"><use xlink:href="#a"/><use xlink:href="#b" x="1.996" y="4.317"/><use xlink:href="#1" y="2.171"/><use xlink:href="#2" y="4.342"/></svg><svg x="770"><use xlink:href="#a"/><use xlink:href="#b" x="1.996" y="4.317"/><text y="3.841" class="f">~/dev/dotenv-audit</text><text x="19.038" y="3.841" class="h">main</text><use xlink:href="#2" y="4.342"/></svg><svg x="880"><use xlink:href="#a"/><use xlink:href="#b" x="1.996" y="4.317"/><use xlink:href="#3" y="2.171"/><use xlink:href="#2" y="4.342"/></svg><svg x="990"><use xlink:href="#a"/><use xlink:href="#b" x="59.996" y="4.317"/><use xlink:href="#3" y="2.171"/><text y="6.012" class="g">❯</text><path fill="#b9c0cb" d="M2.004 4.342h58v2.171h-58z"/><text x="2.004" y="6.012" style="white-space:pre" fill="#282d35">./dotenv-audit.sh demo/demo.env demo/demo.env.example</text></svg><svg x="1100"><use xlink:href="#a"/><use xlink:href="#b" x="59.996" y="4.317"/><use xlink:href="#3" y="2.171"/><use xlink:href="#4" y="4.342"/></svg><svg x="1210"><use xlink:href="#a"/><use xlink:href="#b" x="-.004" y="6.488"/><use xlink:href="#3" y="2.171"/><use xlink:href="#4" y="4.342"/></svg><svg x="1320"><use xlink:href="#a"/><use xlink:href="#b" x="-.004" y="6.488"/><use xlink:href="#3" y="2.171"/><use xlink:href="#4" y="4.342"/></svg><svg x="1430"><use xlink:href="#a"/><use xlink:href="#b" x="-.004" y="6.488"/><use xlink:href="#3" y="2.171"/><use xlink:href="#4" y="4.342"/></svg><svg x="1540"><use xlink:href="#a"/><use xlink:href="#b" x="-.004" y="8.659"/><use xlink:href="#3" y="2.171"/><use xlink:href="#4" y="4.342"/><use xlink:href="#5" y="6.513"/></svg><svg x="1650"><use xlink:href="#a"/><use xlink:href="#b" x="-.004" y="13.001"/><use xlink:href="#3" y="2.171"/><use xlink:href="#4" y="4.342"/><use xlink:href="#5" y="6.513"/><use xlink:href="#6" y="10.855"/></svg><svg x="1760"><use xlink:href="#a"/><use xlink:href="#b" x="-.004" y="17.343"/><use xlink:href="#3" y="2.171"/><use xlink:href="#4" y="4.342"/><use xlink:href="#5" y="6.513"/><use xlink:href="#6" y="10.855"/><use xlink:href="#7" y="13.026"/><use xlink:href="#6" y="15.197"/></svg><svg x="1870"><use xlink:href="#a"/><use xlink:href="#b" x="-.004" y="19.514"/><use xlink:href="#3" y="2.171"/><use xlink:href="#4" y="4.342"/><use xlink:href="#5" y="6.513"/><use xlink:href="#6" y="10.855"/><use xlink:href="#7" y="13.026"/><use xlink:href="#6" y="15.197"/><use xlink:href="#8" y="17.368"/></svg><svg x="1980"><use xlink:href="#a"/><use xlink:href="#b" x="-.004" y="23.856"/><use xlink:href="#3" y="2.171"/><use xlink:href="#4" y="4.342"/><use xlink:href="#5" y="6.513"/><use xlink:href="#6" y="10.855"/><use xlink:href="#7" y="13.026"/><use xlink:href="#6" y="15.197"/><use xlink:href="#8" y="17.368"/><use xlink:href="#9" y="19.539"/><use xlink:href="#6" y="21.71"/></svg><svg x="2090"><use xlink:href="#a"/><use xlink:href="#b" x="-.004" y="28.198"/><use xlink:href="#3" y="2.171"/><use xlink:href="#4" y="4.342"/><use xlink:href="#5" y="6.513"/><use xlink:href="#6" y="10.855"/><use xlink:href="#7" y="13.026"/><use xlink:href="#6" y="15.197"/><use xlink:href="#8" y="17.368"/><use xlink:href="#9" y="19.539"/><use xlink:href="#6" y="21.71"/><use xlink:href="#10" y="23.881"/><use xlink:href="#6" y="26.052"/></svg><svg x="2200"><use xlink:href="#a"/><use xlink:href="#b" x="-.004" y="43.395"/><use xlink:href="#3" y="2.171"/><use xlink:href="#4" y="4.342"/><use xlink:href="#5" y="6.513"/><use xlink:href="#6" y="10.855"/><use xlink:href="#7" y="13.026"/><use xlink:href="#6" y="15.197"/><use xlink:href="#8" y="17.368"/><use xlink:href="#9" y="19.539"/><use xlink:href="#6" y="21.71"/><use xlink:href="#10" y="23.881"/><use xlink:href="#6" y="26.052"/><use xlink:href="#11" y="28.223"/><use xlink:href="#12" y="30.394"/><use xlink:href="#13" y="32.565"/><use xlink:href="#14" y="34.736"/><use xlink:href="#15" y="36.907"/><use xlink:href="#6" y="39.078"/></svg><svg x="2310"><use xlink:href="#a"/><use xlink:href="#b" x="-.004" y="45.566"/><use xlink:href="#3" y="2.171"/><use xlink:href="#4" y="4.342"/><use xlink:href="#5" y="6.513"/><use xlink:href="#6" y="10.855"/><use xlink:href="#7" y="13.026"/><use xlink:href="#6" y="15.197"/><use xlink:href="#8" y="17.368"/><use xlink:href="#9" y="19.539"/><use xlink:href="#6" y="21.71"/><use xlink:href="#10" y="23.881"/><use xlink:href="#6" y="26.052"/><use xlink:href="#11" y="28.223"/><use xlink:href="#12" y="30.394"/><use xlink:href="#13" y="32.565"/><use xlink:href="#14" y="34.736"/><use xlink:href="#15" y="36.907"/><use xlink:href="#6" y="39.078"/><use xlink:href="#16" y="43.42"/></svg><svg x="2420"><use xlink:href="#a"/><use xlink:href="#b" x="-.004" y="45.566"/><use xlink:href="#3" y="2.171"/><use xlink:href="#4" y="4.342"/><use xlink:href="#5" y="6.513"/><use xlink:href="#6" y="10.855"/><use xlink:href="#7" y="13.026"/><use xlink:href="#6" y="15.197"/><use xlink:href="#8" y="17.368"/><use xlink:href="#9" y="19.539"/><use xlink:href="#6" y="21.71"/><use xlink:href="#10" y="23.881"/><use xlink:href="#6" y="26.052"/><use xlink:href="#11" y="28.223"/><use xlink:href="#12" y="30.394"/><use xlink:href="#13" y="32.565"/><use xlink:href="#14" y="34.736"/><use xlink:href="#15" y="36.907"/><use xlink:href="#6" y="39.078"/><use xlink:href="#16" y="43.42"/></svg><svg x="2530"><use xlink:href="#a"/><use xlink:href="#b" x="-.004" y="47.737"/><use xlink:href="#3" y="2.171"/><use xlink:href="#4" y="4.342"/><use xlink:href="#5" y="6.513"/><use xlink:href="#6" y="10.855"/><use xlink:href="#7" y="13.026"/><use xlink:href="#6" y="15.197"/><use xlink:href="#8" y="17.368"/><use xlink:href="#9" y="19.539"/><use xlink:href="#6" y="21.71"/><use xlink:href="#10" y="23.881"/><use xlink:href="#6" y="26.052"/><use xlink:href="#11" y="28.223"/><use xlink:href="#12" y="30.394"/><use xlink:href="#13" y="32.565"/><use xlink:href="#14" y="34.736"/><use xlink:href="#15" y="36.907"/><use xlink:href="#6" y="39.078"/><use xlink:href="#16" y="43.42"/></svg><svg x="2640"><use xlink:href="#a"/><use xlink:href="#b" x="-.004" y="47.737"/><use xlink:href="#3" y="2.171"/><use xlink:href="#4" y="4.342"/><use xlink:href="#5" y="6.513"/><use xlink:href="#6" y="10.855"/><use xlink:href="#7" y="13.026"/><use xlink:href="#6" y="15.197"/><use xlink:href="#8" y="17.368"/><use xlink:href="#9" y="19.539"/><use xlink:href="#6" y="21.71"/><use xlink:href="#10" y="23.881"/><use xlink:href="#6" y="26.052"/><use xlink:href="#11" y="28.223"/><use xlink:href="#12" y="30.394"/><use xlink:href="#13" y="32.565"/><use xlink:href="#14" y="34.736"/><use xlink:href="#15" y="36.907"/><use xlink:href="#6" y="39.078"/><use xlink:href="#16" y="43.42"/></svg><svg x="2750"><use xlink:href="#a"/><use xlink:href="#b" x="-.004" y="47.737"/><use xlink:href="#3" y="2.171"/><use xlink:href="#4" y="4.342"/><use xlink:href="#5" y="6.513"/><use xlink:href="#6" y="10.855"/><use xlink:href="#7" y="13.026"/><use xlink:href="#6" y="15.197"/><use xlink:href="#8" y="17.368"/><use xlink:href="#9" y="19.539"/><use xlink:href="#6" y="21.71"/><use xlink:href="#10" y="23.881"/><use xlink:href="#6" y="26.052"/><use xlink:href="#11" y="28.223"/><use xlink:href="#12" y="30.394"/><use xlink:href="#13" y="32.565"/><use xlink:href="#14" y="34.736"/><use xlink:href="#15" y="36.907"/><use xlink:href="#6" y="39.078"/><use xlink:href="#16" y="43.42"/></svg><svg x="2860"><use xlink:href="#a"/><use xlink:href="#b" x="1.996" y="49.908"/><use xlink:href="#3" y="2.171"/><use xlink:href="#4" y="4.342"/><use xlink:href="#5" y="6.513"/><use xlink:href="#6" y="10.855"/><use xlink:href="#7" y="13.026"/><use xlink:href="#6" y="15.197"/><use xlink:href="#8" y="17.368"/><use xlink:href="#9" y="19.539"/><use xlink:href="#6" y="21.71"/><use xlink:href="#10" y="23.881"/><use xlink:href="#6" y="26.052"/><use xlink:href="#11" y="28.223"/><use xlink:href="#12" y="30.394"/><use xlink:href="#13" y="32.565"/><use xlink:href="#14" y="34.736"/><use xlink:href="#15" y="36.907"/><use xlink:href="#6" y="39.078"/><use xlink:href="#16" y="43.42"/><use xlink:href="#3" y="47.762"/><use xlink:href="#17" y="49.933"/></svg><svg x="2970"><use xlink:href="#a"/><use xlink:href="#b" x="1.996" y="49.908"/><use xlink:href="#3" y="2.171"/><use xlink:href="#4" y="4.342"/><use xlink:href="#5" y="6.513"/><use xlink:href="#6" y="10.855"/><use xlink:href="#7" y="13.026"/><use xlink:href="#6" y="15.197"/><use xlink:href="#8" y="17.368"/><use xlink:href="#9" y="19.539"/><use xlink:href="#6" y="21.71"/><use xlink:href="#10" y="23.881"/><use xlink:href="#6" y="26.052"/><use xlink:href="#11" y="28.223"/><use xlink:href="#12" y="30.394"/><use xlink:href="#13" y="32.565"/><use xlink:href="#14" y="34.736"/><use xlink:href="#15" y="36.907"/><use xlink:href="#6" y="39.078"/><use xlink:href="#16" y="43.42"/><use xlink:href="#3" y="47.762"/><use xlink:href="#17" y="49.933"/></svg><svg x="3080"><use xlink:href="#a"/><use xlink:href="#b" x="-.004" y="52.079"/><use xlink:href="#3" y="2.171"/><use xlink:href="#4" y="4.342"/><use xlink:href="#5" y="6.513"/><use xlink:href="#6" y="10.855"/><use xlink:href="#7" y="13.026"/><use xlink:href="#6" y="15.197"/><use xlink:href="#8" y="17.368"/><use xlink:href="#9" y="19.539"/><use xlink:href="#6" y="21.71"/><use xlink:href="#10" y="23.881"/><use xlink:href="#6" y="26.052"/><use xlink:href="#11" y="28.223"/><use xlink:href="#12" y="30.394"/><use xlink:href="#13" y="32.565"/><use xlink:href="#14" y="34.736"/><use xlink:href="#15" y="36.907"/><use xlink:href="#6" y="39.078"/><use xlink:href="#16" y="43.42"/><use xlink:href="#3" y="47.762"/><use xlink:href="#17" y="49.933"/></svg></svg></g></g></svg></svg>